<svg width="387" height="147" viewBox="0 0 387 147" fill="none" xmlns="http://www.w3.org/2000/svg">
<rect width="387" height="147" fill="white"/>
<path d="M154.023 106.24C152.727 106.24 151.471 106.056 150.255 105.688C149.055 105.32 148.103 104.832 147.399 104.224L148.479 101.8C149.167 102.344 150.007 102.792 150.999 103.144C152.007 103.48 153.015 103.648 154.023 103.648C155.271 103.648 156.199 103.448 156.807 103.048C157.431 102.648 157.743 102.12 157.743 101.464C157.743 100.984 157.567 100.592 157.215 100.288C156.879 99.968 156.447 99.72 155.919 99.544C155.391 99.368 154.671 99.168 153.759 98.944C152.479 98.64 151.439 98.336 150.639 98.032C149.855 97.728 149.175 97.256 148.599 96.616C148.039 95.96 147.759 95.08 147.759 93.976C147.759 93.048 148.007 92.208 148.503 91.456C149.015 90.688 149.775 90.08 150.783 89.632C151.807 89.184 153.055 88.96 154.527 88.96C155.551 88.96 156.559 89.088 157.551 89.344C158.543 89.6 159.399 89.968 160.119 90.448L159.135 92.872C158.399 92.44 157.631 92.112 156.831 91.888C156.031 91.664 155.255 91.552 154.503 91.552C153.271 91.552 152.351 91.76 151.743 92.176C151.151 92.592 150.855 93.144 150.855 93.832C150.855 94.312 151.023 94.704 151.359 95.008C151.711 95.312 152.151 95.552 152.679 95.728C153.207 95.904 153.927 96.104 154.839 96.328C156.087 96.616 157.111 96.92 157.911 97.24C158.711 97.544 159.391 98.016 159.951 98.656C160.527 99.296 160.815 100.16 160.815 101.248C160.815 102.176 160.559 103.016 160.047 103.768C159.551 104.52 158.791 105.12 157.767 105.568C156.743 106.016 155.495 106.24 154.023 106.24ZM171.373 93.04C172.989 93.04 174.285 93.512 175.261 94.456C176.237 95.4 176.725 96.8 176.725 98.656V106H173.725V99.04C173.725 97.92 173.461 97.08 172.933 96.52C172.405 95.944 171.653 95.656 170.677 95.656C169.573 95.656 168.701 95.992 168.061 96.664C167.421 97.32 167.101 98.272 167.101 99.52V106H164.101V88.192H167.101V94.672C167.597 94.144 168.205 93.744 168.925 93.472C169.661 93.184 170.477 93.04 171.373 93.04ZM183.867 95.056C184.731 93.712 186.251 93.04 188.427 93.04V95.896C188.171 95.848 187.939 95.824 187.731 95.824C186.563 95.824 185.651 96.168 184.995 96.856C184.339 97.528 184.011 98.504 184.011 99.784V106H181.011V93.184H183.867V95.056ZM203.382 99.664C203.382 99.872 203.366 100.168 203.334 100.552H193.278C193.454 101.496 193.91 102.248 194.646 102.808C195.398 103.352 196.326 103.624 197.43 103.624C198.838 103.624 199.998 103.16 200.91 102.232L202.518 104.08C201.942 104.768 201.214 105.288 200.334 105.64C199.454 105.992 198.462 106.168 197.358 106.168C195.95 106.168 194.71 105.888 193.638 105.328C192.566 104.768 191.734 103.992 191.142 103C190.566 101.992 190.278 100.856 190.278 99.592C190.278 98.344 190.558 97.224 191.118 96.232C191.694 95.224 192.486 94.44 193.494 93.88C194.502 93.32 195.638 93.04 196.902 93.04C198.15 93.04 199.262 93.32 200.238 93.88C201.23 94.424 201.998 95.2 202.542 96.208C203.102 97.2 203.382 98.352 203.382 99.664ZM196.902 95.44C195.942 95.44 195.126 95.728 194.454 96.304C193.798 96.864 193.398 97.616 193.254 98.56H200.526C200.398 97.632 200.006 96.88 199.35 96.304C198.694 95.728 197.878 95.44 196.902 95.44ZM218.792 99.664C218.792 99.872 218.776 100.168 218.744 100.552H208.688C208.864 101.496 209.32 102.248 210.056 102.808C210.808 103.352 211.736 103.624 212.84 103.624C214.248 103.624 215.408 103.16 216.32 102.232L217.928 104.08C217.352 104.768 216.624 105.288 215.744 105.64C214.864 105.992 213.872 106.168 212.768 106.168C211.36 106.168 210.12 105.888 209.048 105.328C207.976 104.768 207.144 103.992 206.552 103C205.976 101.992 205.688 100.856 205.688 99.592C205.688 98.344 205.968 97.224 206.528 96.232C207.104 95.224 207.896 94.44 208.904 93.88C209.912 93.32 211.048 93.04 212.312 93.04C213.56 93.04 214.672 93.32 215.648 93.88C216.64 94.424 217.408 95.2 217.952 96.208C218.512 97.2 218.792 98.352 218.792 99.664ZM212.312 95.44C211.352 95.44 210.536 95.728 209.864 96.304C209.208 96.864 208.808 97.616 208.664 98.56H215.936C215.808 97.632 215.416 96.88 214.76 96.304C214.104 95.728 213.288 95.44 212.312 95.44ZM242.155 103.384V106H229.555V89.2H241.819V91.816H232.675V96.184H240.787V98.752H232.675V103.384H242.155ZM249.668 106.168C248.628 106.168 247.612 106.032 246.62 105.76C245.628 105.488 244.836 105.144 244.244 104.728L245.396 102.448C245.972 102.832 246.66 103.144 247.46 103.384C248.276 103.608 249.076 103.72 249.86 103.72C251.652 103.72 252.548 103.248 252.548 102.304C252.548 101.856 252.316 101.544 251.852 101.368C251.404 101.192 250.676 101.024 249.668 100.864C248.612 100.704 247.748 100.52 247.076 100.312C246.42 100.104 245.844 99.744 245.348 99.232C244.868 98.704 244.628 97.976 244.628 97.048C244.628 95.832 245.132 94.864 246.14 94.144C247.164 93.408 248.54 93.04 250.268 93.04C251.148 93.04 252.028 93.144 252.908 93.352C253.788 93.544 254.508 93.808 255.068 94.144L253.916 96.424C252.828 95.784 251.604 95.464 250.244 95.464C249.364 95.464 248.692 95.6 248.228 95.872C247.78 96.128 247.556 96.472 247.556 96.904C247.556 97.384 247.796 97.728 248.276 97.936C248.772 98.128 249.532 98.312 250.556 98.488C251.58 98.648 252.42 98.832 253.076 99.04C253.732 99.248 254.292 99.6 254.756 100.096C255.236 100.592 255.476 101.296 255.476 102.208C255.476 103.408 254.956 104.368 253.916 105.088C252.876 105.808 251.46 106.168 249.668 106.168ZM266.243 105.304C265.891 105.592 265.459 105.808 264.947 105.952C264.451 106.096 263.923 106.168 263.363 106.168C261.955 106.168 260.867 105.8 260.099 105.064C259.331 104.328 258.947 103.256 258.947 101.848V95.68H256.835V93.28H258.947V90.352H261.947V93.28H265.379V95.68H261.947V101.776C261.947 102.4 262.099 102.88 262.403 103.216C262.707 103.536 263.147 103.696 263.723 103.696C264.395 103.696 264.955 103.52 265.403 103.168L266.243 105.304ZM274.087 93.04C275.975 93.04 277.415 93.496 278.407 94.408C279.415 95.304 279.919 96.664 279.919 98.488V106H277.087V104.44C276.719 105 276.191 105.432 275.503 105.736C274.831 106.024 274.015 106.168 273.055 106.168C272.095 106.168 271.255 106.008 270.535 105.688C269.815 105.352 269.255 104.896 268.855 104.32C268.471 103.728 268.279 103.064 268.279 102.328C268.279 101.176 268.703 100.256 269.551 99.568C270.415 98.864 271.767 98.512 273.607 98.512H276.919V98.32C276.919 97.424 276.647 96.736 276.103 96.256C275.575 95.776 274.783 95.536 273.727 95.536C273.007 95.536 272.295 95.648 271.591 95.872C270.903 96.096 270.319 96.408 269.839 96.808L268.663 94.624C269.335 94.112 270.143 93.72 271.087 93.448C272.031 93.176 273.031 93.04 274.087 93.04ZM273.679 103.984C274.431 103.984 275.095 103.816 275.671 103.48C276.263 103.128 276.679 102.632 276.919 101.992V100.504H273.823C272.095 100.504 271.231 101.072 271.231 102.208C271.231 102.752 271.447 103.184 271.879 103.504C272.311 103.824 272.911 103.984 273.679 103.984ZM291.953 105.304C291.601 105.592 291.169 105.808 290.657 105.952C290.161 106.096 289.633 106.168 289.073 106.168C287.665 106.168 286.577 105.8 285.809 105.064C285.041 104.328 284.657 103.256 284.657 101.848V95.68H282.545V93.28H284.657V90.352H287.657V93.28H291.089V95.68H287.657V101.776C287.657 102.4 287.809 102.88 288.113 103.216C288.417 103.536 288.857 103.696 289.433 103.696C290.105 103.696 290.665 103.52 291.113 103.168L291.953 105.304ZM306.527 99.664C306.527 99.872 306.511 100.168 306.479 100.552H296.423C296.599 101.496 297.055 102.248 297.791 102.808C298.543 103.352 299.471 103.624 300.575 103.624C301.983 103.624 303.143 103.16 304.055 102.232L305.663 104.08C305.087 104.768 304.359 105.288 303.479 105.64C302.599 105.992 301.607 106.168 300.503 106.168C299.095 106.168 297.855 105.888 296.783 105.328C295.711 104.768 294.879 103.992 294.287 103C293.711 101.992 293.423 100.856 293.423 99.592C293.423 98.344 293.703 97.224 294.263 96.232C294.839 95.224 295.631 94.44 296.639 93.88C297.647 93.32 298.783 93.04 300.047 93.04C301.295 93.04 302.407 93.32 303.383 93.88C304.375 94.424 305.143 95.2 305.687 96.208C306.247 97.2 306.527 98.352 306.527 99.664ZM300.047 95.44C299.087 95.44 298.271 95.728 297.599 96.304C296.943 96.864 296.543 97.616 296.399 98.56H303.671C303.543 97.632 303.151 96.88 302.495 96.304C301.839 95.728 301.023 95.44 300.047 95.44Z" fill="black"/>
<path d="M79.5 106C79.5 98.0508 79.5 87.0778 79.5 80.8438C79.5 77.7811 80.9034 74.8934 83.3085 72.9972L126.051 39.2967C129.328 36.7128 133.865 36.4357 137.432 38.6015L159.5 52M131.5 106C131.5 98.0748 131.5 87.1439 131.5 80.9003C131.5 77.8052 132.933 74.8913 135.381 72.9975L178.354 39.7544C181.97 36.9574 187.017 36.9641 190.62 39.7767C199.043 46.3503 214.42 58.3526 225.5 67" stroke="black" stroke-width="6"/>
<rect x="175.5" y="62" width="8" height="8" fill="black"/>
<rect x="185.5" y="62" width="8" height="8" fill="black"/>
<rect x="175.5" y="72" width="8" height="8" fill="black"/>
<rect x="185.5" y="72" width="8" height="8" fill="black"/>
</svg>
